<mxfile host="app.diagrams.net" modified="2023-10-11T07:41:55.964Z" agent="Mozilla/5.0 (Windows NT 10.0; Win64; x64) AppleWebKit/537.36 (KHTML, like Gecko) Chrome/117.0.0.0 Safari/537.36" etag="SjKIdLFdLinNhr1pLXhJ" version="22.0.4" type="device">
  <diagram name="Page-1" id="oE6kzNzaOc-ce6eB_eJm">
    <mxGraphModel dx="794" dy="503" grid="1" gridSize="10" guides="1" tooltips="1" connect="1" arrows="1" fold="1" page="1" pageScale="1" pageWidth="850" pageHeight="1100" math="0" shadow="0">
      <root>
        <mxCell id="0" />
        <mxCell id="1" parent="0" />
        <mxCell id="UT2f9QVJ57FA_NTHOvrF-1" value="&lt;div style=&quot;font-family: &amp;quot;JetBrains Mono&amp;quot;, monospace;&quot;&gt;&lt;pre style=&quot;&quot;&gt;&lt;font color=&quot;#660000&quot; style=&quot;font-size: 10px;&quot;&gt;&lt;b&gt;StatefulAsyncController&lt;/b&gt;&lt;/font&gt;&lt;/pre&gt;&lt;/div&gt;" style="rounded=1;whiteSpace=wrap;html=1;" parent="1" vertex="1">
          <mxGeometry x="229" y="220" width="140" height="20" as="geometry" />
        </mxCell>
        <mxCell id="UT2f9QVJ57FA_NTHOvrF-2" value="&lt;div style=&quot;font-family: &amp;quot;JetBrains Mono&amp;quot;, monospace;&quot;&gt;&lt;pre style=&quot;&quot;&gt;&lt;div style=&quot;font-family: &amp;quot;JetBrains Mono&amp;quot;, monospace;&quot;&gt;&lt;pre style=&quot;&quot;&gt;&lt;font color=&quot;#660000&quot; style=&quot;font-size: 10px;&quot;&gt;&lt;b style=&quot;&quot;&gt;StatelessAsyncController&lt;/b&gt;&lt;/font&gt;&lt;/pre&gt;&lt;/div&gt;&lt;/pre&gt;&lt;/div&gt;" style="rounded=1;whiteSpace=wrap;html=1;" parent="1" vertex="1">
          <mxGeometry x="409" y="220" width="140" height="20" as="geometry" />
        </mxCell>
        <mxCell id="UT2f9QVJ57FA_NTHOvrF-7" value="POST" style="text;html=1;align=center;verticalAlign=middle;resizable=0;points=[];autosize=1;strokeColor=none;fillColor=none;fontStyle=1;fontColor=#CC0000;" parent="1" vertex="1">
          <mxGeometry x="234" y="137" width="60" height="30" as="geometry" />
        </mxCell>
        <mxCell id="UT2f9QVJ57FA_NTHOvrF-10" value="GET" style="text;html=1;align=center;verticalAlign=middle;resizable=0;points=[];autosize=1;strokeColor=none;fillColor=none;fontStyle=1;fontColor=#CC0000;" parent="1" vertex="1">
          <mxGeometry x="309" y="137" width="50" height="30" as="geometry" />
        </mxCell>
        <mxCell id="UT2f9QVJ57FA_NTHOvrF-11" value="&lt;b&gt;&lt;font color=&quot;#0000cc&quot;&gt;BackendActor&lt;/font&gt;&lt;/b&gt;" style="ellipse;whiteSpace=wrap;html=1;" parent="1" vertex="1">
          <mxGeometry x="329" y="299" width="120" height="80" as="geometry" />
        </mxCell>
        <mxCell id="UT2f9QVJ57FA_NTHOvrF-12" value="&lt;font color=&quot;#0000cc&quot; style=&quot;font-size: 11px;&quot;&gt;&lt;b&gt;StatefulActor&lt;/b&gt;&lt;/font&gt;" style="ellipse;whiteSpace=wrap;html=1;" parent="1" vertex="1">
          <mxGeometry x="194" y="439" width="120" height="80" as="geometry" />
        </mxCell>
        <mxCell id="UT2f9QVJ57FA_NTHOvrF-13" value="&lt;font color=&quot;#0000cc&quot; style=&quot;font-size: 11px;&quot;&gt;&lt;b&gt;StatelessActor&lt;/b&gt;&lt;/font&gt;" style="ellipse;whiteSpace=wrap;html=1;" parent="1" vertex="1">
          <mxGeometry x="489" y="439" width="120" height="80" as="geometry" />
        </mxCell>
        <mxCell id="UT2f9QVJ57FA_NTHOvrF-14" value="&lt;font style=&quot;font-size: 10px;&quot;&gt;StatefulWorkerActor-2&lt;/font&gt;" style="ellipse;whiteSpace=wrap;html=1;dashed=1;" parent="1" vertex="1">
          <mxGeometry x="194" y="599" width="120" height="80" as="geometry" />
        </mxCell>
        <mxCell id="UT2f9QVJ57FA_NTHOvrF-16" value="&lt;font style=&quot;font-size: 10px;&quot;&gt;StatefulWorkerActor-1&lt;/font&gt;" style="ellipse;whiteSpace=wrap;html=1;dashed=1;" parent="1" vertex="1">
          <mxGeometry x="69" y="599" width="120" height="80" as="geometry" />
        </mxCell>
        <mxCell id="UT2f9QVJ57FA_NTHOvrF-18" value="&lt;font style=&quot;font-size: 10px;&quot;&gt;StatelessWorkerActor-2&lt;br&gt;&lt;/font&gt;" style="ellipse;whiteSpace=wrap;html=1;dashed=1;" parent="1" vertex="1">
          <mxGeometry x="584" y="599" width="120" height="80" as="geometry" />
        </mxCell>
        <mxCell id="UT2f9QVJ57FA_NTHOvrF-19" value="&lt;font style=&quot;font-size: 10px;&quot;&gt;StatelessWorkerActor-1&lt;br&gt;&lt;/font&gt;" style="ellipse;whiteSpace=wrap;html=1;dashed=1;" parent="1" vertex="1">
          <mxGeometry x="459" y="599" width="120" height="80" as="geometry" />
        </mxCell>
        <mxCell id="UT2f9QVJ57FA_NTHOvrF-20" value="" style="endArrow=none;dashed=1;html=1;dashPattern=1 3;strokeWidth=2;rounded=0;" parent="1" edge="1">
          <mxGeometry width="50" height="50" relative="1" as="geometry">
            <mxPoint x="329" y="636.41" as="sourcePoint" />
            <mxPoint x="378" y="638.41" as="targetPoint" />
          </mxGeometry>
        </mxCell>
        <mxCell id="UT2f9QVJ57FA_NTHOvrF-21" value="" style="endArrow=classic;html=1;rounded=0;exitX=0.5;exitY=1;exitDx=0;exitDy=0;entryX=0.244;entryY=0.096;entryDx=0;entryDy=0;entryPerimeter=0;" parent="1" source="UT2f9QVJ57FA_NTHOvrF-1" target="UT2f9QVJ57FA_NTHOvrF-11" edge="1">
          <mxGeometry relative="1" as="geometry">
            <mxPoint x="388" y="461" as="sourcePoint" />
            <mxPoint x="488" y="461" as="targetPoint" />
          </mxGeometry>
        </mxCell>
        <mxCell id="UT2f9QVJ57FA_NTHOvrF-22" value="&lt;b&gt;&lt;font color=&quot;#000066&quot; style=&quot;font-size: 10px;&quot;&gt;StatefulMessage&lt;/font&gt;&lt;/b&gt;" style="shape=message;html=1;outlineConnect=0;strokeColor=#B3B3B3;" parent="UT2f9QVJ57FA_NTHOvrF-21" vertex="1">
          <mxGeometry width="90" height="24" relative="1" as="geometry">
            <mxPoint x="-41" y="-17" as="offset" />
          </mxGeometry>
        </mxCell>
        <mxCell id="UT2f9QVJ57FA_NTHOvrF-26" value="" style="endArrow=classic;html=1;rounded=0;exitX=0.5;exitY=1;exitDx=0;exitDy=0;entryX=0.754;entryY=0.076;entryDx=0;entryDy=0;entryPerimeter=0;" parent="1" source="UT2f9QVJ57FA_NTHOvrF-2" target="UT2f9QVJ57FA_NTHOvrF-11" edge="1">
          <mxGeometry relative="1" as="geometry">
            <mxPoint x="469" y="240" as="sourcePoint" />
            <mxPoint x="528" y="307" as="targetPoint" />
          </mxGeometry>
        </mxCell>
        <mxCell id="UT2f9QVJ57FA_NTHOvrF-27" value="&lt;b&gt;&lt;font color=&quot;#000066&quot; style=&quot;font-size: 10px;&quot;&gt;StatelessMessage&lt;/font&gt;&lt;/b&gt;" style="shape=message;html=1;outlineConnect=0;strokeColor=#B3B3B3;" parent="UT2f9QVJ57FA_NTHOvrF-26" vertex="1">
          <mxGeometry width="100" height="24" relative="1" as="geometry">
            <mxPoint x="-51" y="-17" as="offset" />
          </mxGeometry>
        </mxCell>
        <mxCell id="UT2f9QVJ57FA_NTHOvrF-28" value="" style="endArrow=classic;html=1;rounded=0;exitX=0;exitY=1;exitDx=0;exitDy=0;entryX=0.5;entryY=0;entryDx=0;entryDy=0;" parent="1" source="UT2f9QVJ57FA_NTHOvrF-11" target="UT2f9QVJ57FA_NTHOvrF-12" edge="1">
          <mxGeometry relative="1" as="geometry">
            <mxPoint x="194" y="351" as="sourcePoint" />
            <mxPoint x="253" y="418" as="targetPoint" />
          </mxGeometry>
        </mxCell>
        <mxCell id="UT2f9QVJ57FA_NTHOvrF-29" value="&lt;b&gt;&lt;font color=&quot;#000066&quot; style=&quot;font-size: 10px;&quot;&gt;StatefulMessage&lt;/font&gt;&lt;/b&gt;" style="shape=message;html=1;outlineConnect=0;strokeColor=#B3B3B3;" parent="UT2f9QVJ57FA_NTHOvrF-28" vertex="1">
          <mxGeometry width="90" height="24" relative="1" as="geometry">
            <mxPoint x="-41" y="-17" as="offset" />
          </mxGeometry>
        </mxCell>
        <mxCell id="UT2f9QVJ57FA_NTHOvrF-30" value="" style="endArrow=classic;html=1;rounded=0;exitX=1;exitY=1;exitDx=0;exitDy=0;entryX=0.5;entryY=0;entryDx=0;entryDy=0;" parent="1" source="UT2f9QVJ57FA_NTHOvrF-11" target="UT2f9QVJ57FA_NTHOvrF-13" edge="1">
          <mxGeometry relative="1" as="geometry">
            <mxPoint x="489" y="250" as="sourcePoint" />
            <mxPoint x="429" y="315" as="targetPoint" />
          </mxGeometry>
        </mxCell>
        <mxCell id="UT2f9QVJ57FA_NTHOvrF-31" value="&lt;b&gt;&lt;font color=&quot;#000066&quot; style=&quot;font-size: 10px;&quot;&gt;StatelessMessage&lt;/font&gt;&lt;/b&gt;" style="shape=message;html=1;outlineConnect=0;strokeColor=#B3B3B3;" parent="UT2f9QVJ57FA_NTHOvrF-30" vertex="1">
          <mxGeometry width="100" height="24" relative="1" as="geometry">
            <mxPoint x="-41" y="-17" as="offset" />
          </mxGeometry>
        </mxCell>
        <mxCell id="UT2f9QVJ57FA_NTHOvrF-34" value="&lt;font color=&quot;#660000&quot; style=&quot;font-size: 10px;&quot;&gt;Session&lt;br style=&quot;border-color: var(--border-color); text-align: left;&quot;&gt;&lt;span style=&quot;text-align: left;&quot;&gt;Manager&lt;/span&gt;&lt;/font&gt;" style="html=1;points=[[0,0,0,0,5],[0,1,0,0,-5],[1,0,0,0,5],[1,1,0,0,-5]];perimeter=orthogonalPerimeter;outlineConnect=0;targetShapes=umlLifeline;portConstraint=eastwest;newEdgeStyle={&quot;curved&quot;:0,&quot;rounded&quot;:0};strokeColor=#660000;" parent="1" vertex="1">
          <mxGeometry x="38" y="461" width="50" height="50" as="geometry" />
        </mxCell>
        <mxCell id="UT2f9QVJ57FA_NTHOvrF-35" value="findSession" style="html=1;verticalAlign=bottom;endArrow=block;entryX=1;entryY=0;entryDx=0;entryDy=5;curved=1;" parent="1" target="UT2f9QVJ57FA_NTHOvrF-34" edge="1">
          <mxGeometry relative="1" as="geometry">
            <mxPoint x="188" y="479" as="sourcePoint" />
            <Array as="points">
              <mxPoint x="138" y="461" />
            </Array>
          </mxGeometry>
        </mxCell>
        <mxCell id="UT2f9QVJ57FA_NTHOvrF-36" value="return" style="html=1;verticalAlign=bottom;endArrow=open;dashed=1;endSize=8;curved=1;exitX=1;exitY=1;exitDx=0;exitDy=-5;entryX=0;entryY=0.5;entryDx=0;entryDy=0;" parent="1" source="UT2f9QVJ57FA_NTHOvrF-34" target="UT2f9QVJ57FA_NTHOvrF-12" edge="1">
          <mxGeometry relative="1" as="geometry">
            <mxPoint x="169" y="536" as="targetPoint" />
            <Array as="points">
              <mxPoint x="138" y="501" />
            </Array>
          </mxGeometry>
        </mxCell>
        <mxCell id="UT2f9QVJ57FA_NTHOvrF-38" value="" style="endArrow=classic;html=1;rounded=0;exitX=0;exitY=1;exitDx=0;exitDy=0;entryX=0;entryY=0;entryDx=0;entryDy=0;" parent="1" source="UT2f9QVJ57FA_NTHOvrF-12" target="UT2f9QVJ57FA_NTHOvrF-16" edge="1">
          <mxGeometry relative="1" as="geometry">
            <mxPoint x="357" y="377" as="sourcePoint" />
            <mxPoint x="129" y="599" as="targetPoint" />
          </mxGeometry>
        </mxCell>
        <mxCell id="UT2f9QVJ57FA_NTHOvrF-39" value="&lt;b style=&quot;border-color: var(--border-color);&quot;&gt;&lt;font style=&quot;border-color: var(--border-color); font-size: 10px;&quot;&gt;&lt;font color=&quot;#000099&quot;&gt;&lt;b style=&quot;border-color: var(--border-color); font-size: 12px;&quot;&gt;&lt;font style=&quot;border-color: var(--border-color); font-size: 10px;&quot;&gt;GetStatefulMessage&lt;br style=&quot;border-color: var(--border-color);&quot;&gt;&lt;/font&gt;&lt;/b&gt;PostStatefulMessage&lt;br&gt;&lt;/font&gt;&lt;i style=&quot;&quot;&gt;&lt;font style=&quot;background-color: rgb(255, 255, 255);&quot; color=&quot;#cc0000&quot;&gt;DeleteStatefulMessage&lt;/font&gt;&lt;/i&gt;&lt;br style=&quot;border-color: var(--border-color);&quot;&gt;&lt;/font&gt;&lt;/b&gt;" style="shape=message;html=1;outlineConnect=0;strokeColor=#B3B3B3;" parent="UT2f9QVJ57FA_NTHOvrF-38" vertex="1">
          <mxGeometry width="110" height="40" relative="1" as="geometry">
            <mxPoint x="-62" y="-27" as="offset" />
          </mxGeometry>
        </mxCell>
        <mxCell id="UT2f9QVJ57FA_NTHOvrF-42" value="" style="endArrow=classic;html=1;rounded=0;exitX=0.5;exitY=1;exitDx=0;exitDy=0;entryX=0.5;entryY=0;entryDx=0;entryDy=0;" parent="1" source="UT2f9QVJ57FA_NTHOvrF-12" target="UT2f9QVJ57FA_NTHOvrF-14" edge="1">
          <mxGeometry relative="1" as="geometry">
            <mxPoint x="222" y="517" as="sourcePoint" />
            <mxPoint x="139" y="609" as="targetPoint" />
          </mxGeometry>
        </mxCell>
        <mxCell id="UT2f9QVJ57FA_NTHOvrF-46" value="" style="endArrow=classic;html=1;rounded=0;exitX=0;exitY=1;exitDx=0;exitDy=0;entryX=0;entryY=0;entryDx=0;entryDy=0;" parent="1" source="UT2f9QVJ57FA_NTHOvrF-13" target="UT2f9QVJ57FA_NTHOvrF-19" edge="1">
          <mxGeometry relative="1" as="geometry">
            <mxPoint x="222" y="517" as="sourcePoint" />
            <mxPoint x="97" y="621" as="targetPoint" />
          </mxGeometry>
        </mxCell>
        <mxCell id="UT2f9QVJ57FA_NTHOvrF-47" value="&lt;b style=&quot;border-color: var(--border-color);&quot;&gt;&lt;font style=&quot;border-color: var(--border-color); font-size: 10px;&quot;&gt;&lt;font color=&quot;#000099&quot;&gt;&lt;b style=&quot;border-color: var(--border-color); font-size: 12px;&quot;&gt;&lt;font style=&quot;border-color: var(--border-color); font-size: 10px;&quot;&gt;GetStatelessMessage&lt;br style=&quot;border-color: var(--border-color);&quot;&gt;&lt;/font&gt;&lt;/b&gt;PostStatelessMessage&lt;/font&gt;&lt;br style=&quot;border-color: var(--border-color);&quot;&gt;&lt;/font&gt;&lt;/b&gt;" style="shape=message;html=1;outlineConnect=0;strokeColor=#B3B3B3;" parent="UT2f9QVJ57FA_NTHOvrF-46" vertex="1">
          <mxGeometry width="110" height="34" relative="1" as="geometry">
            <mxPoint x="-61" y="-27" as="offset" />
          </mxGeometry>
        </mxCell>
        <mxCell id="UT2f9QVJ57FA_NTHOvrF-48" value="" style="endArrow=classic;html=1;rounded=0;exitX=1;exitY=1;exitDx=0;exitDy=0;entryX=0.5;entryY=0;entryDx=0;entryDy=0;" parent="1" source="UT2f9QVJ57FA_NTHOvrF-13" target="UT2f9QVJ57FA_NTHOvrF-18" edge="1">
          <mxGeometry relative="1" as="geometry">
            <mxPoint x="517" y="517" as="sourcePoint" />
            <mxPoint x="487" y="621" as="targetPoint" />
          </mxGeometry>
        </mxCell>
        <mxCell id="UT2f9QVJ57FA_NTHOvrF-49" value="&lt;b style=&quot;border-color: var(--border-color);&quot;&gt;&lt;font style=&quot;border-color: var(--border-color); font-size: 10px;&quot;&gt;&lt;font color=&quot;#000099&quot;&gt;&lt;b style=&quot;border-color: var(--border-color); font-size: 12px;&quot;&gt;&lt;font style=&quot;border-color: var(--border-color); font-size: 10px;&quot;&gt;GetStatelessMessage&lt;br style=&quot;border-color: var(--border-color);&quot;&gt;&lt;/font&gt;&lt;/b&gt;PostStatelessMessage&lt;/font&gt;&lt;br style=&quot;border-color: var(--border-color);&quot;&gt;&lt;/font&gt;&lt;/b&gt;" style="shape=message;html=1;outlineConnect=0;strokeColor=#B3B3B3;" parent="UT2f9QVJ57FA_NTHOvrF-48" vertex="1">
          <mxGeometry width="110" height="34" relative="1" as="geometry">
            <mxPoint x="-61" y="-21" as="offset" />
          </mxGeometry>
        </mxCell>
        <mxCell id="UT2f9QVJ57FA_NTHOvrF-52" value="" style="endArrow=none;dashed=1;html=1;dashPattern=1 3;strokeWidth=4;rounded=0;strokeColor=#000000;fontStyle=1" parent="1" edge="1">
          <mxGeometry width="50" height="50" relative="1" as="geometry">
            <mxPoint x="328" y="638.41" as="sourcePoint" />
            <mxPoint x="388" y="638.41" as="targetPoint" />
          </mxGeometry>
        </mxCell>
        <mxCell id="UT2f9QVJ57FA_NTHOvrF-56" value="" style="endArrow=none;dashed=1;html=1;dashPattern=1 3;strokeWidth=2;rounded=0;" parent="1" edge="1">
          <mxGeometry width="50" height="50" relative="1" as="geometry">
            <mxPoint x="719" y="635.41" as="sourcePoint" />
            <mxPoint x="768" y="637.41" as="targetPoint" />
          </mxGeometry>
        </mxCell>
        <mxCell id="UT2f9QVJ57FA_NTHOvrF-57" value="" style="endArrow=none;dashed=1;html=1;dashPattern=1 3;strokeWidth=4;rounded=0;strokeColor=#000000;fontStyle=1" parent="1" edge="1">
          <mxGeometry width="50" height="50" relative="1" as="geometry">
            <mxPoint x="718" y="637.41" as="sourcePoint" />
            <mxPoint x="778" y="637.41" as="targetPoint" />
          </mxGeometry>
        </mxCell>
        <mxCell id="UT2f9QVJ57FA_NTHOvrF-58" value="" style="ellipse;html=1;shape=startState;fillColor=#000000;strokeColor=#ff0000;" parent="1" vertex="1">
          <mxGeometry x="248" y="154" width="30" height="30" as="geometry" />
        </mxCell>
        <mxCell id="UT2f9QVJ57FA_NTHOvrF-59" value="" style="edgeStyle=orthogonalEdgeStyle;html=1;verticalAlign=bottom;endArrow=open;endSize=8;strokeColor=#ff0000;rounded=0;" parent="1" edge="1">
          <mxGeometry relative="1" as="geometry">
            <mxPoint x="263" y="219" as="targetPoint" />
            <mxPoint x="263" y="181" as="sourcePoint" />
          </mxGeometry>
        </mxCell>
        <mxCell id="UT2f9QVJ57FA_NTHOvrF-63" value="" style="ellipse;html=1;shape=startState;fillColor=#000000;strokeColor=#ff0000;" parent="1" vertex="1">
          <mxGeometry x="319" y="154" width="30" height="30" as="geometry" />
        </mxCell>
        <mxCell id="UT2f9QVJ57FA_NTHOvrF-64" value="" style="edgeStyle=orthogonalEdgeStyle;html=1;verticalAlign=bottom;endArrow=open;endSize=8;strokeColor=#ff0000;rounded=0;entryX=0.75;entryY=0;entryDx=0;entryDy=0;" parent="1" target="UT2f9QVJ57FA_NTHOvrF-1" edge="1">
          <mxGeometry relative="1" as="geometry">
            <mxPoint x="334" y="219" as="targetPoint" />
            <mxPoint x="334" y="181" as="sourcePoint" />
          </mxGeometry>
        </mxCell>
        <mxCell id="UT2f9QVJ57FA_NTHOvrF-65" value="POST" style="text;html=1;align=center;verticalAlign=middle;resizable=0;points=[];autosize=1;strokeColor=none;fillColor=none;fontStyle=1;fontColor=#CC0000;" parent="1" vertex="1">
          <mxGeometry x="415" y="137" width="60" height="30" as="geometry" />
        </mxCell>
        <mxCell id="UT2f9QVJ57FA_NTHOvrF-66" value="" style="ellipse;html=1;shape=startState;fillColor=#000000;strokeColor=#ff0000;" parent="1" vertex="1">
          <mxGeometry x="429" y="154" width="30" height="30" as="geometry" />
        </mxCell>
        <mxCell id="UT2f9QVJ57FA_NTHOvrF-67" value="" style="edgeStyle=orthogonalEdgeStyle;html=1;verticalAlign=bottom;endArrow=open;endSize=8;strokeColor=#ff0000;rounded=0;" parent="1" edge="1">
          <mxGeometry relative="1" as="geometry">
            <mxPoint x="444" y="219" as="targetPoint" />
            <mxPoint x="444" y="181" as="sourcePoint" />
          </mxGeometry>
        </mxCell>
        <mxCell id="UT2f9QVJ57FA_NTHOvrF-68" value="GET" style="text;html=1;align=center;verticalAlign=middle;resizable=0;points=[];autosize=1;strokeColor=none;fillColor=none;fontStyle=1;fontColor=#CC0000;" parent="1" vertex="1">
          <mxGeometry x="490" y="138" width="50" height="30" as="geometry" />
        </mxCell>
        <mxCell id="UT2f9QVJ57FA_NTHOvrF-69" value="" style="ellipse;html=1;shape=startState;fillColor=#000000;strokeColor=#ff0000;" parent="1" vertex="1">
          <mxGeometry x="500" y="155" width="30" height="30" as="geometry" />
        </mxCell>
        <mxCell id="UT2f9QVJ57FA_NTHOvrF-70" value="" style="edgeStyle=orthogonalEdgeStyle;html=1;verticalAlign=bottom;endArrow=open;endSize=8;strokeColor=#ff0000;rounded=0;" parent="1" edge="1">
          <mxGeometry relative="1" as="geometry">
            <mxPoint x="515" y="220" as="targetPoint" />
            <mxPoint x="515" y="182" as="sourcePoint" />
          </mxGeometry>
        </mxCell>
        <mxCell id="UT2f9QVJ57FA_NTHOvrF-73" value="&lt;font size=&quot;1&quot; color=&quot;#660000&quot; style=&quot;&quot;&gt;&lt;b style=&quot;&quot;&gt;&lt;i style=&quot;font-size: 36px;&quot;&gt;DEMO-ACTOR-SYSTEM&lt;/i&gt;&lt;/b&gt;&lt;/font&gt;" style="text;html=1;align=center;verticalAlign=middle;resizable=0;points=[];autosize=1;strokeColor=none;fillColor=none;" parent="1" vertex="1">
          <mxGeometry x="169" y="30" width="430" height="60" as="geometry" />
        </mxCell>
        <mxCell id="UT2f9QVJ57FA_NTHOvrF-74" value="" style="shape=umlDestroy;whiteSpace=wrap;html=1;strokeWidth=3;targetShapes=umlLifeline;fillColor=#CC0000;strokeColor=#CC0000;" parent="1" vertex="1">
          <mxGeometry x="504" y="770" width="30" height="30" as="geometry" />
        </mxCell>
        <mxCell id="UT2f9QVJ57FA_NTHOvrF-77" value="" style="endArrow=classic;html=1;rounded=0;exitX=0.5;exitY=1;exitDx=0;exitDy=0;" parent="1" source="UT2f9QVJ57FA_NTHOvrF-19" edge="1">
          <mxGeometry relative="1" as="geometry">
            <mxPoint x="328" y="780" as="sourcePoint" />
            <mxPoint x="518" y="770" as="targetPoint" />
          </mxGeometry>
        </mxCell>
        <mxCell id="UT2f9QVJ57FA_NTHOvrF-78" value="" style="shape=message;html=1;outlineConnect=0;" parent="UT2f9QVJ57FA_NTHOvrF-77" vertex="1">
          <mxGeometry width="40" height="30" relative="1" as="geometry">
            <mxPoint x="-20" y="-17" as="offset" />
          </mxGeometry>
        </mxCell>
        <mxCell id="UT2f9QVJ57FA_NTHOvrF-80" value="Poison" style="edgeLabel;html=1;align=center;verticalAlign=middle;resizable=0;points=[];" parent="UT2f9QVJ57FA_NTHOvrF-77" vertex="1" connectable="0">
          <mxGeometry x="0.0337" y="1" relative="1" as="geometry">
            <mxPoint as="offset" />
          </mxGeometry>
        </mxCell>
        <mxCell id="UT2f9QVJ57FA_NTHOvrF-89" value="" style="shape=umlDestroy;whiteSpace=wrap;html=1;strokeWidth=3;targetShapes=umlLifeline;" parent="1" vertex="1">
          <mxGeometry x="1448" y="1241" width="30" height="30" as="geometry" />
        </mxCell>
        <mxCell id="UT2f9QVJ57FA_NTHOvrF-90" value="" style="endArrow=classic;html=1;rounded=0;exitX=0.5;exitY=1;exitDx=0;exitDy=0;" parent="1" edge="1">
          <mxGeometry relative="1" as="geometry">
            <mxPoint x="1463" y="1150" as="sourcePoint" />
            <mxPoint x="1462" y="1241" as="targetPoint" />
          </mxGeometry>
        </mxCell>
        <mxCell id="UT2f9QVJ57FA_NTHOvrF-91" value="" style="shape=message;html=1;outlineConnect=0;" parent="UT2f9QVJ57FA_NTHOvrF-90" vertex="1">
          <mxGeometry width="40" height="30" relative="1" as="geometry">
            <mxPoint x="-20" y="-17" as="offset" />
          </mxGeometry>
        </mxCell>
        <mxCell id="UT2f9QVJ57FA_NTHOvrF-92" value="Poison" style="edgeLabel;html=1;align=center;verticalAlign=middle;resizable=0;points=[];" parent="UT2f9QVJ57FA_NTHOvrF-90" vertex="1" connectable="0">
          <mxGeometry x="0.0337" y="1" relative="1" as="geometry">
            <mxPoint as="offset" />
          </mxGeometry>
        </mxCell>
        <mxCell id="UT2f9QVJ57FA_NTHOvrF-93" value="" style="shape=umlDestroy;whiteSpace=wrap;html=1;strokeWidth=3;targetShapes=umlLifeline;strokeColor=#CC0000;" parent="1" vertex="1">
          <mxGeometry x="618" y="770" width="30" height="30" as="geometry" />
        </mxCell>
        <mxCell id="UT2f9QVJ57FA_NTHOvrF-94" value="" style="endArrow=classic;html=1;rounded=0;" parent="1" target="UT2f9QVJ57FA_NTHOvrF-93" edge="1">
          <mxGeometry relative="1" as="geometry">
            <mxPoint x="638" y="680" as="sourcePoint" />
            <mxPoint x="620" y="777" as="targetPoint" />
          </mxGeometry>
        </mxCell>
        <mxCell id="UT2f9QVJ57FA_NTHOvrF-95" value="" style="shape=message;html=1;outlineConnect=0;" parent="UT2f9QVJ57FA_NTHOvrF-94" vertex="1">
          <mxGeometry width="40" height="30" relative="1" as="geometry">
            <mxPoint x="-20" y="-17" as="offset" />
          </mxGeometry>
        </mxCell>
        <mxCell id="UT2f9QVJ57FA_NTHOvrF-96" value="Poison" style="edgeLabel;html=1;align=center;verticalAlign=middle;resizable=0;points=[];" parent="UT2f9QVJ57FA_NTHOvrF-94" vertex="1" connectable="0">
          <mxGeometry x="0.0337" y="1" relative="1" as="geometry">
            <mxPoint as="offset" />
          </mxGeometry>
        </mxCell>
        <mxCell id="UT2f9QVJ57FA_NTHOvrF-99" value="&lt;b style=&quot;border-color: var(--border-color);&quot;&gt;&lt;font style=&quot;border-color: var(--border-color); font-size: 10px;&quot;&gt;&lt;font color=&quot;#000099&quot;&gt;&lt;b style=&quot;border-color: var(--border-color); font-size: 12px;&quot;&gt;&lt;font style=&quot;border-color: var(--border-color); font-size: 10px;&quot;&gt;GetStatefulMessage&lt;br style=&quot;border-color: var(--border-color);&quot;&gt;&lt;/font&gt;&lt;/b&gt;PostStatefulMessage&lt;br&gt;&lt;/font&gt;&lt;i style=&quot;&quot;&gt;&lt;font style=&quot;background-color: rgb(255, 255, 255);&quot; color=&quot;#cc0000&quot;&gt;DeleteStatefulMessage&lt;/font&gt;&lt;/i&gt;&lt;br style=&quot;border-color: var(--border-color);&quot;&gt;&lt;/font&gt;&lt;/b&gt;" style="shape=message;html=1;outlineConnect=0;strokeColor=#B3B3B3;" parent="1" vertex="1">
          <mxGeometry x="213.031568192755" y="532.0347736030994" width="110" height="40" as="geometry" />
        </mxCell>
        <mxCell id="UT2f9QVJ57FA_NTHOvrF-100" value="" style="shape=umlDestroy;whiteSpace=wrap;html=1;strokeWidth=3;targetShapes=umlLifeline;strokeColor=#CC0000;" parent="1" vertex="1">
          <mxGeometry x="115" y="824" width="30" height="28" as="geometry" />
        </mxCell>
        <mxCell id="UT2f9QVJ57FA_NTHOvrF-104" value="&lt;div style=&quot;line-height: 120%;&quot;&gt;&lt;span style=&quot;font-size: 8px; color: rgb(204, 0, 0); background-color: initial;&quot;&gt;Is&lt;/span&gt;&lt;/div&gt;&lt;font color=&quot;#cc0000&quot; style=&quot;font-size: 8px;&quot;&gt;&lt;div style=&quot;line-height: 120%;&quot;&gt;&lt;b style=&quot;background-color: initial; border-color: var(--border-color);&quot;&gt;&lt;font style=&quot;border-color: var(--border-color);&quot;&gt;&lt;i style=&quot;border-color: var(--border-color);&quot;&gt;&lt;font style=&quot;border-color: var(--border-color); background-color: rgb(255, 255, 255);&quot;&gt;DeleteStateful&lt;/font&gt;&lt;/i&gt;&lt;/font&gt;&lt;/b&gt;&lt;/div&gt;&lt;div style=&quot;line-height: 120%;&quot;&gt;&lt;b style=&quot;background-color: initial; border-color: var(--border-color);&quot;&gt;&lt;font style=&quot;border-color: var(--border-color);&quot;&gt;&lt;i style=&quot;border-color: var(--border-color);&quot;&gt;&lt;font style=&quot;border-color: var(--border-color); background-color: rgb(255, 255, 255);&quot;&gt;Message?&lt;/font&gt;&lt;/i&gt;&lt;/font&gt;&lt;/b&gt;&lt;/div&gt;&lt;/font&gt;" style="rhombus;whiteSpace=wrap;html=1;fontColor=#000000;fillColor=#ffffc0;strokeColor=#ff0000;align=center;" parent="1" vertex="1">
          <mxGeometry x="89" y="706" width="80" height="78" as="geometry" />
        </mxCell>
        <mxCell id="UT2f9QVJ57FA_NTHOvrF-112" value="Condition" style="rhombus;whiteSpace=wrap;html=1;fontColor=#000000;fillColor=#ffffc0;strokeColor=#ff0000;" parent="1" vertex="1">
          <mxGeometry x="1120" y="1100" width="80" height="40" as="geometry" />
        </mxCell>
        <mxCell id="UT2f9QVJ57FA_NTHOvrF-113" value="no" style="edgeStyle=orthogonalEdgeStyle;html=1;align=left;verticalAlign=bottom;endArrow=open;endSize=8;strokeColor=#ff0000;rounded=0;" parent="1" source="UT2f9QVJ57FA_NTHOvrF-112" edge="1">
          <mxGeometry x="-1" relative="1" as="geometry">
            <mxPoint x="1300" y="1120" as="targetPoint" />
          </mxGeometry>
        </mxCell>
        <mxCell id="UT2f9QVJ57FA_NTHOvrF-114" value="yes" style="edgeStyle=orthogonalEdgeStyle;html=1;align=left;verticalAlign=top;endArrow=open;endSize=8;strokeColor=#ff0000;rounded=0;" parent="1" source="UT2f9QVJ57FA_NTHOvrF-112" edge="1">
          <mxGeometry x="-1" relative="1" as="geometry">
            <mxPoint x="1160" y="1200" as="targetPoint" />
          </mxGeometry>
        </mxCell>
        <mxCell id="UT2f9QVJ57FA_NTHOvrF-119" value="" style="endArrow=classic;html=1;exitX=0.5;exitY=1;exitDx=0;exitDy=0;entryX=0.5;entryY=0;entryDx=0;entryDy=0;curved=1;strokeColor=#CC0000;" parent="1" source="UT2f9QVJ57FA_NTHOvrF-16" target="UT2f9QVJ57FA_NTHOvrF-104" edge="1">
          <mxGeometry relative="1" as="geometry">
            <mxPoint x="264" y="529" as="sourcePoint" />
            <mxPoint x="264" y="609" as="targetPoint" />
          </mxGeometry>
        </mxCell>
        <mxCell id="UT2f9QVJ57FA_NTHOvrF-120" value="" style="shape=umlDestroy;whiteSpace=wrap;html=1;strokeWidth=3;targetShapes=umlLifeline;strokeColor=#CC0000;" parent="1" vertex="1">
          <mxGeometry x="239" y="824" width="30" height="28" as="geometry" />
        </mxCell>
        <mxCell id="UT2f9QVJ57FA_NTHOvrF-121" value="&lt;div style=&quot;line-height: 120%;&quot;&gt;&lt;span style=&quot;font-size: 8px; color: rgb(204, 0, 0); background-color: initial;&quot;&gt;Is&lt;/span&gt;&lt;/div&gt;&lt;font color=&quot;#cc0000&quot; style=&quot;font-size: 8px;&quot;&gt;&lt;div style=&quot;line-height: 120%;&quot;&gt;&lt;b style=&quot;background-color: initial; border-color: var(--border-color);&quot;&gt;&lt;font style=&quot;border-color: var(--border-color);&quot;&gt;&lt;i style=&quot;border-color: var(--border-color);&quot;&gt;&lt;font style=&quot;border-color: var(--border-color); background-color: rgb(255, 255, 255);&quot;&gt;DeleteStateful&lt;/font&gt;&lt;/i&gt;&lt;/font&gt;&lt;/b&gt;&lt;/div&gt;&lt;div style=&quot;line-height: 120%;&quot;&gt;&lt;b style=&quot;background-color: initial; border-color: var(--border-color);&quot;&gt;&lt;font style=&quot;border-color: var(--border-color);&quot;&gt;&lt;i style=&quot;border-color: var(--border-color);&quot;&gt;&lt;font style=&quot;border-color: var(--border-color); background-color: rgb(255, 255, 255);&quot;&gt;Message?&lt;/font&gt;&lt;/i&gt;&lt;/font&gt;&lt;/b&gt;&lt;/div&gt;&lt;/font&gt;" style="rhombus;whiteSpace=wrap;html=1;fontColor=#000000;fillColor=#ffffc0;strokeColor=#ff0000;align=center;" parent="1" vertex="1">
          <mxGeometry x="214" y="705.5" width="80" height="78" as="geometry" />
        </mxCell>
        <mxCell id="UT2f9QVJ57FA_NTHOvrF-122" value="yes" style="edgeStyle=orthogonalEdgeStyle;html=1;align=left;verticalAlign=top;endArrow=open;endSize=8;strokeColor=#ff0000;entryX=0.435;entryY=0.305;entryDx=0;entryDy=0;entryPerimeter=0;curved=1;" parent="1" source="UT2f9QVJ57FA_NTHOvrF-121" target="UT2f9QVJ57FA_NTHOvrF-120" edge="1">
          <mxGeometry x="-0.7371" y="-11" relative="1" as="geometry">
            <mxPoint x="274" y="835.5" as="targetPoint" />
            <mxPoint y="1" as="offset" />
          </mxGeometry>
        </mxCell>
        <mxCell id="UT2f9QVJ57FA_NTHOvrF-124" value="" style="endArrow=classic;html=1;exitX=0.5;exitY=1;exitDx=0;exitDy=0;entryX=0.5;entryY=0;entryDx=0;entryDy=0;curved=1;strokeColor=#CC0000;" parent="1" source="UT2f9QVJ57FA_NTHOvrF-14" target="UT2f9QVJ57FA_NTHOvrF-121" edge="1">
          <mxGeometry relative="1" as="geometry">
            <mxPoint x="267" y="678.5" as="sourcePoint" />
            <mxPoint x="402" y="608.5" as="targetPoint" />
          </mxGeometry>
        </mxCell>
        <mxCell id="s53IZCF4UYfnPQUQIK8d-1" value="&lt;b&gt;&lt;font color=&quot;#0000cc&quot;&gt;CallbackActor&lt;/font&gt;&lt;/b&gt;" style="ellipse;whiteSpace=wrap;html=1;" vertex="1" parent="1">
          <mxGeometry x="645" y="220" width="110" height="70" as="geometry" />
        </mxCell>
        <mxCell id="s53IZCF4UYfnPQUQIK8d-3" value="POST" style="text;html=1;align=center;verticalAlign=middle;resizable=0;points=[];autosize=1;strokeColor=none;fillColor=none;fontStyle=1;fontColor=#CC0000;" vertex="1" parent="1">
          <mxGeometry x="671" y="80" width="60" height="30" as="geometry" />
        </mxCell>
        <mxCell id="s53IZCF4UYfnPQUQIK8d-4" value="" style="ellipse;html=1;shape=startState;fillColor=#000000;strokeColor=#ff0000;" vertex="1" parent="1">
          <mxGeometry x="685" y="97" width="30" height="30" as="geometry" />
        </mxCell>
        <mxCell id="s53IZCF4UYfnPQUQIK8d-5" value="" style="edgeStyle=orthogonalEdgeStyle;html=1;verticalAlign=bottom;endArrow=open;endSize=8;strokeColor=#ff0000;rounded=0;exitX=0.5;exitY=0;exitDx=0;exitDy=0;entryX=0.5;entryY=1;entryDx=0;entryDy=0;" edge="1" parent="1" source="s53IZCF4UYfnPQUQIK8d-1" target="s53IZCF4UYfnPQUQIK8d-4">
          <mxGeometry relative="1" as="geometry">
            <mxPoint x="700" y="130" as="targetPoint" />
            <mxPoint x="229" y="178" as="sourcePoint" />
          </mxGeometry>
        </mxCell>
        <mxCell id="s53IZCF4UYfnPQUQIK8d-6" value="" style="endArrow=classic;html=1;entryX=0.5;entryY=1;entryDx=0;entryDy=0;exitX=1;exitY=0;exitDx=0;exitDy=0;curved=1;dashed=1;dashPattern=1 2;fontColor=#B3B3B3;strokeColor=#D6D6D6;" edge="1" parent="1" source="UT2f9QVJ57FA_NTHOvrF-18" target="s53IZCF4UYfnPQUQIK8d-1">
          <mxGeometry width="50" height="50" relative="1" as="geometry">
            <mxPoint x="710" y="520" as="sourcePoint" />
            <mxPoint x="430" y="290" as="targetPoint" />
            <Array as="points">
              <mxPoint x="750" y="450" />
            </Array>
          </mxGeometry>
        </mxCell>
        <mxCell id="s53IZCF4UYfnPQUQIK8d-7" value="Response" style="edgeLabel;html=1;align=center;verticalAlign=middle;resizable=0;points=[];fontColor=#B3B3B3;" vertex="1" connectable="0" parent="s53IZCF4UYfnPQUQIK8d-6">
          <mxGeometry x="0.0742" y="28" relative="1" as="geometry">
            <mxPoint as="offset" />
          </mxGeometry>
        </mxCell>
        <mxCell id="s53IZCF4UYfnPQUQIK8d-8" value="" style="endArrow=classic;html=1;entryX=0.5;entryY=1;entryDx=0;entryDy=0;exitX=0.5;exitY=0;exitDx=0;exitDy=0;curved=1;dashed=1;dashPattern=1 2;strokeColor=#D6D6D6;" edge="1" parent="1" source="UT2f9QVJ57FA_NTHOvrF-19" target="s53IZCF4UYfnPQUQIK8d-1">
          <mxGeometry width="50" height="50" relative="1" as="geometry">
            <mxPoint x="696" y="621" as="sourcePoint" />
            <mxPoint x="710" y="300" as="targetPoint" />
            <Array as="points">
              <mxPoint x="760" y="460" />
            </Array>
          </mxGeometry>
        </mxCell>
        <mxCell id="s53IZCF4UYfnPQUQIK8d-9" value="Response" style="edgeLabel;html=1;align=center;verticalAlign=middle;resizable=0;points=[];fontColor=#B3B3B3;" vertex="1" connectable="0" parent="s53IZCF4UYfnPQUQIK8d-8">
          <mxGeometry x="0.0742" y="28" relative="1" as="geometry">
            <mxPoint x="-47" y="18" as="offset" />
          </mxGeometry>
        </mxCell>
        <mxCell id="s53IZCF4UYfnPQUQIK8d-10" value="" style="endArrow=classic;html=1;entryX=0;entryY=0.5;entryDx=0;entryDy=0;exitX=1;exitY=0;exitDx=0;exitDy=0;dashed=1;dashPattern=1 2;curved=1;strokeColor=#D6D6D6;" edge="1" parent="1" source="UT2f9QVJ57FA_NTHOvrF-14" target="s53IZCF4UYfnPQUQIK8d-1">
          <mxGeometry width="50" height="50" relative="1" as="geometry">
            <mxPoint x="495" y="588" as="sourcePoint" />
            <mxPoint x="676" y="279" as="targetPoint" />
            <Array as="points">
              <mxPoint x="450" y="500" />
              <mxPoint x="570" y="380" />
            </Array>
          </mxGeometry>
        </mxCell>
        <mxCell id="s53IZCF4UYfnPQUQIK8d-11" value="Response" style="edgeLabel;html=1;align=center;verticalAlign=middle;resizable=0;points=[];fontColor=#B3B3B3;" vertex="1" connectable="0" parent="s53IZCF4UYfnPQUQIK8d-10">
          <mxGeometry x="0.0742" y="28" relative="1" as="geometry">
            <mxPoint x="-29" y="58" as="offset" />
          </mxGeometry>
        </mxCell>
        <mxCell id="s53IZCF4UYfnPQUQIK8d-15" value="" style="endArrow=classic;html=1;entryX=0;entryY=0.5;entryDx=0;entryDy=0;exitX=1;exitY=0;exitDx=0;exitDy=0;curved=1;dashed=1;dashPattern=1 2;strokeColor=#D6D6D6;" edge="1" parent="1" source="UT2f9QVJ57FA_NTHOvrF-16" target="s53IZCF4UYfnPQUQIK8d-1">
          <mxGeometry width="50" height="50" relative="1" as="geometry">
            <mxPoint x="359" y="549" as="sourcePoint" />
            <mxPoint x="540" y="240" as="targetPoint" />
            <Array as="points">
              <mxPoint x="600" y="410" />
            </Array>
          </mxGeometry>
        </mxCell>
        <mxCell id="s53IZCF4UYfnPQUQIK8d-16" value="Response" style="edgeLabel;html=1;align=center;verticalAlign=middle;resizable=0;points=[];fontColor=#B3B3B3;" vertex="1" connectable="0" parent="s53IZCF4UYfnPQUQIK8d-15">
          <mxGeometry x="0.0742" y="28" relative="1" as="geometry">
            <mxPoint x="-47" y="18" as="offset" />
          </mxGeometry>
        </mxCell>
        <mxCell id="s53IZCF4UYfnPQUQIK8d-17" value="no" style="edgeStyle=orthogonalEdgeStyle;html=1;align=left;verticalAlign=bottom;endArrow=open;endSize=8;strokeColor=#ff0000;exitX=0;exitY=0;exitDx=0;exitDy=0;curved=1;entryX=0;entryY=1;entryDx=0;entryDy=0;" edge="1" parent="1" source="UT2f9QVJ57FA_NTHOvrF-104" target="UT2f9QVJ57FA_NTHOvrF-16">
          <mxGeometry x="0.233" y="8" relative="1" as="geometry">
            <mxPoint x="78" y="670" as="targetPoint" />
            <mxPoint x="109" y="725" as="sourcePoint" />
            <mxPoint as="offset" />
          </mxGeometry>
        </mxCell>
        <mxCell id="s53IZCF4UYfnPQUQIK8d-18" value="yes" style="edgeStyle=orthogonalEdgeStyle;html=1;align=left;verticalAlign=top;endArrow=open;endSize=8;strokeColor=#ff0000;curved=1;exitX=0.5;exitY=1;exitDx=0;exitDy=0;" edge="1" parent="1" source="UT2f9QVJ57FA_NTHOvrF-104">
          <mxGeometry x="-0.7371" y="-11" relative="1" as="geometry">
            <mxPoint x="129" y="830" as="targetPoint" />
            <mxPoint y="1" as="offset" />
            <mxPoint x="309" y="794" as="sourcePoint" />
          </mxGeometry>
        </mxCell>
        <mxCell id="s53IZCF4UYfnPQUQIK8d-19" value="no" style="edgeStyle=orthogonalEdgeStyle;html=1;align=left;verticalAlign=bottom;endArrow=open;endSize=8;strokeColor=#ff0000;exitX=0;exitY=0;exitDx=0;exitDy=0;curved=1;entryX=0;entryY=1;entryDx=0;entryDy=0;" edge="1" parent="1" source="UT2f9QVJ57FA_NTHOvrF-121" target="UT2f9QVJ57FA_NTHOvrF-14">
          <mxGeometry x="0.233" y="8" relative="1" as="geometry">
            <mxPoint x="97" y="677" as="targetPoint" />
            <mxPoint x="119" y="736" as="sourcePoint" />
            <mxPoint as="offset" />
          </mxGeometry>
        </mxCell>
      </root>
    </mxGraphModel>
  </diagram>
</mxfile>
